<svg width="48" height="48" viewBox="0 0 48 48" fill="none" xmlns="http://www.w3.org/2000/svg">
<path d="M24.0005 20C22.9396 20 21.9222 20.4214 21.172 21.1716C20.4219 21.9217 20.0005 22.9391 20.0005 24C20.0005 26.04 19.8005 29.02 19.4805 32" stroke="#0971CE" stroke-width="3" stroke-linecap="round" stroke-linejoin="round"/>
<path d="M28 26.2402C28 31.0002 28 39.0002 26 44.0002" stroke="#0971CE" stroke-width="3" stroke-linecap="round" stroke-linejoin="round"/>
<path d="M34.5801 42.04C34.8201 40.84 35.4401 37.44 35.5801 36" stroke="#0971CE" stroke-width="3" stroke-linecap="round" stroke-linejoin="round"/>
<path d="M4 24C4 19.8024 5.32075 15.7111 7.77516 12.3058C10.2296 8.90048 13.6932 6.35375 17.6754 5.02633C21.6577 3.69892 25.9566 3.65813 29.9634 4.90973C33.9701 6.16133 37.4814 8.64188 40 12" stroke="#0971CE" stroke-width="3" stroke-linecap="round" stroke-linejoin="round"/>
<path d="M4 32H4.02" stroke="#0971CE" stroke-width="3" stroke-linecap="round" stroke-linejoin="round"/>
<path d="M43.5996 32C43.9996 28 43.8616 21.292 43.5996 20" stroke="#0971CE" stroke-width="3" stroke-linecap="round" stroke-linejoin="round"/>
<path d="M10 39C11 36 12 30 12 24C11.998 22.6377 12.2279 21.2851 12.68 20" stroke="#0971CE" stroke-width="3" stroke-linecap="round" stroke-linejoin="round"/>
<path d="M17.3 44C17.72 42.68 18.2001 41.36 18.4401 40" stroke="#0971CE" stroke-width="3" stroke-linecap="round" stroke-linejoin="round"/>
<path d="M18 13.5999C19.8248 12.5463 21.8948 11.9919 24.0019 11.9922C26.109 11.9925 28.1789 12.5477 30.0033 13.6018C31.8278 14.6559 33.3425 16.1719 34.3952 17.9972C35.4479 19.8225 36.0014 21.8928 36 23.9999V27.9999" stroke="#0971CE" stroke-width="3" stroke-linecap="round" stroke-linejoin="round"/>
</svg>
