<svg width="48" height="48" viewBox="0 0 48 48" fill="none" xmlns="http://www.w3.org/2000/svg">
<path d="M24 34V42" stroke="#0971CE" stroke-width="3" stroke-linecap="round" stroke-linejoin="round"/>
<path d="M28.6104 15.0599L30.4564 14.2959" stroke="#0971CE" stroke-width="3" stroke-linecap="round" stroke-linejoin="round"/>
<path d="M30.4564 9.7035L28.6104 8.9375" stroke="#0971CE" stroke-width="3" stroke-linecap="round" stroke-linejoin="round"/>
<path d="M33.7045 6.4564L32.9385 4.6084" stroke="#0971CE" stroke-width="3" stroke-linecap="round" stroke-linejoin="round"/>
<path d="M33.7045 17.5439L32.9385 19.3899" stroke="#0971CE" stroke-width="3" stroke-linecap="round" stroke-linejoin="round"/>
<path d="M38.2959 6.4564L39.0619 4.6084" stroke="#0971CE" stroke-width="3" stroke-linecap="round" stroke-linejoin="round"/>
<path d="M39.0599 19.3919L38.2959 17.5439" stroke="#0971CE" stroke-width="3" stroke-linecap="round" stroke-linejoin="round"/>
<path d="M41.5439 9.70448L43.3919 8.93848" stroke="#0971CE" stroke-width="3" stroke-linecap="round" stroke-linejoin="round"/>
<path d="M41.5439 14.2959L43.3919 15.0619" stroke="#0971CE" stroke-width="3" stroke-linecap="round" stroke-linejoin="round"/>
<path d="M44 26V30C44 31.0609 43.5786 32.0783 42.8284 32.8284C42.0783 33.5786 41.0609 34 40 34H8C6.93913 34 5.92172 33.5786 5.17157 32.8284C4.42143 32.0783 4 31.0609 4 30V10C4 8.93913 4.42143 7.92172 5.17157 7.17157C5.92172 6.42143 6.93913 6 8 6H22" stroke="#0971CE" stroke-width="3" stroke-linecap="round" stroke-linejoin="round"/>
<path d="M16 42H32" stroke="#0971CE" stroke-width="3" stroke-linecap="round" stroke-linejoin="round"/>
<path d="M36 18C39.3137 18 42 15.3137 42 12C42 8.68629 39.3137 6 36 6C32.6863 6 30 8.68629 30 12C30 15.3137 32.6863 18 36 18Z" stroke="#0971CE" stroke-width="3" stroke-linecap="round" stroke-linejoin="round"/>
</svg>
