<svg width="48" height="48" viewBox="0 0 48 48" fill="none" xmlns="http://www.w3.org/2000/svg">
<path d="M14 36V24C14 21.3478 15.0536 18.8043 16.9289 16.9289C18.8043 15.0536 21.3478 14 24 14C26.6522 14 29.1957 15.0536 31.0711 16.9289C32.9464 18.8043 34 21.3478 34 24V36" stroke="#55616D" stroke-width="3" stroke-linecap="round" stroke-linejoin="round"/>
<path d="M10 42C10 42.5304 10.2107 43.0391 10.5858 43.4142C10.9609 43.7893 11.4696 44 12 44H36C36.5304 44 37.0391 43.7893 37.4142 43.4142C37.7893 43.0391 38 42.5304 38 42V40C38 38.9391 37.5786 37.9217 36.8284 37.1716C36.0783 36.4214 35.0609 36 34 36H14C12.9391 36 11.9217 36.4214 11.1716 37.1716C10.4214 37.9217 10 38.9391 10 40V42Z" stroke="#55616D" stroke-width="3" stroke-linecap="round" stroke-linejoin="round"/>
<path d="M42 24H44" stroke="#55616D" stroke-width="3" stroke-linecap="round" stroke-linejoin="round"/>
<path d="M37 9L36 10" stroke="#55616D" stroke-width="3" stroke-linecap="round" stroke-linejoin="round"/>
<path d="M4 24H6" stroke="#55616D" stroke-width="3" stroke-linecap="round" stroke-linejoin="round"/>
<path d="M24 4V6" stroke="#55616D" stroke-width="3" stroke-linecap="round" stroke-linejoin="round"/>
<path d="M9.8584 9.85742L11.2724 11.2714" stroke="#55616D" stroke-width="3" stroke-linecap="round" stroke-linejoin="round"/>
<path d="M24 24V36" stroke="#55616D" stroke-width="3" stroke-linecap="round" stroke-linejoin="round"/>
</svg>
