<svg width="48" height="48" viewBox="0 0 48 48" fill="none" xmlns="http://www.w3.org/2000/svg">
<path d="M31.2193 28.5633L24.1006 24.3818" stroke="#F0662F" stroke-width="3" stroke-miterlimit="10" stroke-linejoin="round"/>
<path d="M31.8262 14.9031L24.6739 15.955L19.651 13.2324C18.5564 12.6391 17.1881 13.047 16.5971 14.1428C16.0082 15.2347 16.4137 16.5972 17.5038 17.1893L22.9631 20.1548C23.5297 20.4626 24.1725 20.6022 24.8158 20.557L26.5855 20.4328M16.631 29.955L12.0858 38.3202C11.3946 39.5923 11.8639 41.1838 13.1347 41.8772C14.4089 42.5727 16.0058 42.1017 16.6986 40.826L19.9745 34.7943C20.2931 34.2078 20.8277 33.7687 21.4649 33.57L25.2038 32.4047" stroke="#F0662F" stroke-width="3" stroke-miterlimit="10" stroke-linecap="round" stroke-linejoin="round"/>
<path d="M8.04341 27.8224L15.823 24.424C16.6975 24.0419 17.6796 23.9845 18.5926 24.2621L23.2683 25.6837L28.9779 16.7557C30.2053 14.8364 32.7561 14.2755 34.6754 15.5029C35.0178 15.7216 35.3259 15.9896 35.5898 16.2985L40.7324 22.3517C41.0608 22.7387 41.2487 23.2254 41.2656 23.7327L41.4522 29.4835C41.4924 30.7247 40.5193 31.7638 39.2782 31.8051C38.0355 31.8463 36.995 30.8719 36.9548 29.6291L36.7942 24.6655L34.8993 22.8095L29.8754 30.6654C29.0882 31.8964 27.7567 32.5685 26.3964 32.5685C25.908 32.5685 25.4159 32.4813 24.9439 32.3026L17.3884 29.467L10.1453 32.6327C8.81506 33.214 7.26556 32.6052 6.68694 31.2739C6.10991 29.9461 6.71675 28.4019 8.04341 27.8224Z" stroke="#F0662F" stroke-width="3" stroke-miterlimit="10" stroke-linecap="round" stroke-linejoin="round"/>
<path d="M34.1605 15.1908C36.3611 15.7804 38.6229 14.4745 39.2126 12.2739L39.5522 11.0062C40.1418 8.80566 38.836 6.54375 36.6354 5.95407C34.4348 5.36447 32.173 6.67032 31.5833 8.87091L31.2436 10.1387C30.654 12.3392 31.9599 14.6011 34.1605 15.1908Z" stroke="#F0662F" stroke-width="3" stroke-miterlimit="10" stroke-linecap="round" stroke-linejoin="round"/>
<path d="M32.5983 33.8882C31.5418 35.0964 30.1538 35.9678 28.6064 36.394M36.2163 35.977C34.3326 38.4379 31.6256 40.0789 28.6064 40.6205M12.9663 12.1841C13.7759 10.6829 15.122 9.5879 16.7565 9.10059" stroke="#F0662F" stroke-width="3" stroke-miterlimit="10" stroke-linecap="round" stroke-linejoin="round"/>
</svg>
