<svg width="48" height="48" viewBox="0 0 48 48" fill="none" xmlns="http://www.w3.org/2000/svg">
<path d="M5.172 34.8283C4.4218 35.5783 4.00023 36.5955 4 37.6563V42.0003C4 42.5308 4.21071 43.0395 4.58579 43.4145C4.96086 43.7896 5.46957 44.0003 6 44.0003H12C12.5304 44.0003 13.0391 43.7896 13.4142 43.4145C13.7893 43.0395 14 42.5308 14 42.0003V40.0003C14 39.4699 14.2107 38.9612 14.5858 38.5861C14.9609 38.211 15.4696 38.0003 16 38.0003H18C18.5304 38.0003 19.0391 37.7896 19.4142 37.4145C19.7893 37.0395 20 36.5308 20 36.0003V34.0003C20 33.4699 20.2107 32.9612 20.5858 32.5861C20.9609 32.211 21.4696 32.0003 22 32.0003H22.344C23.4048 32.0001 24.422 31.5785 25.172 30.8283L26.8 29.2003C29.5797 30.1686 32.6057 30.1649 35.383 29.1898C38.1603 28.2147 40.5244 26.326 42.0887 23.8326C43.653 21.3391 44.3248 18.3887 43.9942 15.4638C43.6636 12.5389 42.3502 9.81282 40.2689 7.73146C38.1875 5.6501 35.4614 4.33669 32.5365 4.0061C29.6117 3.67551 26.6612 4.34731 24.1677 5.9116C21.6743 7.47589 19.7856 9.84007 18.8105 12.6174C17.8354 15.3947 17.8317 18.4207 18.8 21.2003L5.172 34.8283Z" stroke="#F0662F" stroke-width="3" stroke-linecap="round" stroke-linejoin="round"/>
<path d="M33 16C33.5523 16 34 15.5523 34 15C34 14.4477 33.5523 14 33 14C32.4477 14 32 14.4477 32 15C32 15.5523 32.4477 16 33 16Z" fill="#F0662F" stroke="#F0662F" stroke-width="3" stroke-linecap="round" stroke-linejoin="round"/>
</svg>
