<svg width="64" height="64" viewBox="0 0 64 64" fill="none" xmlns="http://www.w3.org/2000/svg">
<path fill-rule="evenodd" clip-rule="evenodd" d="M54.435 40.2516C53.7404 39.3615 49.8289 39.8311 48.074 40.0389C47.539 40.1044 47.4571 39.6397 47.939 39.3042C51.0545 37.1116 56.1662 37.7449 56.7618 38.4795C57.3582 39.2191 56.6063 44.3431 53.6791 46.7885C53.2307 47.164 52.8012 46.9636 53.0016 46.4662C53.6586 44.8242 55.1329 41.1458 54.435 40.2516Z" fill="#F0662F"/>
<path fill-rule="evenodd" clip-rule="evenodd" d="M52.23 42.8495C46.7567 46.8838 38.8235 49.0362 31.9931 49.0362C22.4157 49.0362 13.7937 45.4939 7.27068 39.6025C6.7583 39.1391 7.21737 38.5078 7.83241 38.8685C14.8719 42.9643 23.576 45.4283 32.567 45.4283C38.6308 45.4283 45.3013 44.1737 51.4347 41.5704C52.3612 41.1767 53.1361 42.1772 52.23 42.8495Z" fill="#F0662F"/>
<path fill-rule="evenodd" clip-rule="evenodd" d="M53.409 28.0828C51.0259 28.0828 49.8343 29.0027 49.8343 30.8417C49.8343 32.4427 50.6772 33.2431 52.3623 33.2431C53.0087 33.2431 53.7067 33.1157 54.4559 32.8598C55.205 32.6047 55.9625 32.23 56.7287 31.736V28.5426C55.5709 28.2359 54.4643 28.0828 53.409 28.0828ZM53.7668 21.0575C56.7115 21.0575 58.1836 22.3267 58.1836 24.8642V33.9072C58.1836 34.163 58.0559 34.2905 57.8009 34.2905H57.2648C57.0092 34.2905 56.8729 34.163 56.8562 33.9072L56.7542 32.8089C55.2898 33.9838 53.7579 34.5717 52.1583 34.5717C50.9833 34.5717 50.0516 34.2353 49.3622 33.5624C48.6724 32.8901 48.3278 31.9915 48.3278 30.8673C48.3278 29.6245 48.7496 28.6448 49.5918 27.9298C50.4345 27.2141 51.5962 26.8571 53.0773 26.8571C53.6218 26.8571 54.2175 26.908 54.8645 27.0099C55.5111 27.1121 56.1326 27.2569 56.7287 27.4444V25.2987C56.7287 24.2597 56.4815 23.5144 55.9879 23.0631C55.4938 22.6121 54.6771 22.3861 53.5367 22.3861C52.4814 22.3861 51.3664 22.5564 50.192 22.8971C50.0046 22.9482 49.8556 22.9949 49.7453 23.0377C49.6338 23.0804 49.545 23.1012 49.4774 23.1012C49.2726 23.1012 49.1705 22.9907 49.1705 22.7693V22.3607C49.1705 22.1049 49.281 21.9352 49.5028 21.8498C50.1494 21.5939 50.8433 21.3986 51.5835 21.2622C52.3242 21.1258 53.0515 21.0575 53.7668 21.0575ZM41.3652 28.6194L37.6628 34.0092C37.5264 34.1972 37.3479 34.2905 37.1267 34.2905H36.4118C36.1901 34.2905 36.0797 34.1972 36.0797 34.0092C36.0797 33.9416 36.139 33.8305 36.2583 33.6775L40.6247 27.5975L36.6415 22.0284C36.5394 21.8752 36.4883 21.7733 36.4883 21.7221C36.4883 21.5345 36.5988 21.4408 36.82 21.4408H37.6117C37.8329 21.4408 38.0117 21.5345 38.148 21.7221L41.4931 26.4737L44.8377 21.7221C44.9734 21.5345 45.1443 21.4408 45.3483 21.4408H46.0375C46.2589 21.4408 46.3696 21.5345 46.3696 21.7221C46.3696 21.7905 46.3188 21.9006 46.2165 22.0539L42.2842 27.4954L46.6509 33.6776C46.7529 33.8305 46.8038 33.9416 46.8038 34.0092C46.8038 34.1973 46.6927 34.2905 46.4715 34.2905H45.6806C45.476 34.2905 45.3057 34.1973 45.1698 34.0092L41.3652 28.6194ZM29.5731 22.3607C28.2968 22.3607 27.2878 22.7351 26.5476 23.4845C25.8069 24.234 25.3602 25.3325 25.2073 26.7798C25.8709 26.9506 26.5308 27.0783 27.1859 27.1631C27.8407 27.2485 28.5008 27.2906 29.1644 27.2906C30.4413 27.2906 31.3773 27.1037 31.9735 26.7288C32.569 26.3541 32.867 25.758 32.867 24.9408C32.867 23.2204 31.7691 22.3607 29.5731 22.3607V22.3607ZM32.816 32.9109C33.0372 32.8432 33.1991 32.7879 33.3012 32.7448C33.4033 32.7026 33.4968 32.6813 33.5821 32.6813C33.7865 32.6813 33.8883 32.7923 33.8883 33.0135V33.3708C33.8883 33.6437 33.7949 33.8223 33.6077 33.9072C32.3816 34.418 31.0799 34.6738 29.7008 34.6738C27.7435 34.6738 26.2493 34.1076 25.2198 32.9748C24.1897 31.8426 23.6754 30.1865 23.6754 28.0064C23.6754 26.9333 23.8112 25.9666 24.0833 25.1069C24.3555 24.2469 24.7512 23.5144 25.2706 22.9095C25.7897 22.3054 26.424 21.8455 27.1728 21.5305C27.9221 21.2154 28.7646 21.0575 29.7008 21.0575C31.1817 21.0575 32.3264 21.3986 33.135 22.0793C33.9435 22.7612 34.3479 23.7142 34.3479 24.9408C34.3479 26.1502 33.9181 27.0399 33.0587 27.6105C32.1989 28.1806 30.8667 28.4663 29.0625 28.4663C28.4153 28.4663 27.764 28.4276 27.1095 28.3512C26.4539 28.2746 25.8026 28.1428 25.1556 27.9552C25.1556 29.7942 25.5429 31.1525 26.3176 32.0295C27.0923 32.9073 28.254 33.3453 29.8029 33.3453C30.8074 33.3453 31.8115 33.2009 32.816 32.9109L32.816 32.9109ZM18.9108 15.7696C18.9108 15.5144 19.0383 15.3864 19.294 15.3864H19.9832C20.2382 15.3864 20.3661 15.5144 20.3661 15.7696V32.0681C20.3661 32.4427 20.4382 32.7067 20.5834 32.8598C20.7277 33.0135 20.9874 33.0902 21.3622 33.0902C21.464 33.0902 21.5792 33.0815 21.7068 33.0645C21.8343 33.0473 21.9405 33.0389 22.0257 33.0389C22.2637 33.0389 22.3835 33.1581 22.3835 33.3965V33.8817C22.3835 34.0863 22.2726 34.2141 22.0514 34.2649C21.9493 34.2989 21.8001 34.3243 21.6047 34.3415C21.4083 34.3581 21.2342 34.3671 21.0809 34.3671C20.4001 34.3671 19.8679 34.1671 19.485 33.7663C19.1023 33.3669 18.9108 32.8088 18.9108 32.0937L18.9108 15.7696ZM10.7656 28.0828C8.38253 28.0828 7.19089 29.0027 7.19089 30.8417C7.19089 32.4427 8.03384 33.2431 9.71894 33.2431C10.3653 33.2431 11.0635 33.1157 11.8124 32.8598C12.5616 32.6047 13.3189 32.23 14.0851 31.736V28.5426C12.9275 28.2359 11.8208 28.0828 10.7656 28.0828ZM11.1231 21.0575C14.0681 21.0575 15.54 22.3267 15.54 24.8642V33.9072C15.54 34.163 15.4127 34.2905 15.1577 34.2905H14.6212C14.3658 34.2905 14.2295 34.163 14.2127 33.9072L14.1108 32.8089C12.6463 33.9838 11.1143 34.5717 9.51474 34.5717C8.33992 34.5717 7.40799 34.2353 6.7188 33.5624C6.02917 32.8901 5.68457 31.9915 5.68457 30.8673C5.68457 29.6245 6.10604 28.6448 6.94838 27.9298C7.79133 27.2141 8.95305 26.8571 10.4339 26.8571C10.9784 26.8571 11.5739 26.908 12.2211 27.0099C12.8677 27.1121 13.489 27.2569 14.0852 27.4444V25.2987C14.0852 24.2597 13.8379 23.5144 13.3443 23.0631C12.8505 22.6121 12.0336 22.3861 10.8929 22.3861C9.83804 22.3861 8.72303 22.5564 7.54861 22.8971C7.36104 22.9482 7.21219 22.9949 7.10215 23.0377C6.9904 23.0804 6.90143 23.1012 6.8338 23.1012C6.6292 23.1012 6.52709 22.9907 6.52709 22.7693V22.3607C6.52709 22.1049 6.6376 21.9352 6.8594 21.8498C7.506 21.5939 8.19989 21.3986 8.94012 21.2622C9.68079 21.1258 10.4079 21.0575 11.1231 21.0575Z" fill="#F0662F" stroke="#F0662F"/>
</svg>
